<svg preserveAspectRatio="none" width="100%" height="100%" overflow="visible" style="display: block;" viewBox="0 0 14.8165 14.7279" fill="none" xmlns="http://www.w3.org/2000/svg">
<path id="Arrow 1" d="M1 6.36396C0.447715 6.36396 0 6.81168 0 7.36396C0 7.91625 0.447715 8.36396 1 8.36396V7.36396V6.36396ZM14.5236 8.07107C14.9141 7.68054 14.9141 7.04738 14.5236 6.65685L8.15961 0.292893C7.76908 -0.097631 7.13592 -0.097631 6.74539 0.292893C6.35487 0.683418 6.35487 1.31658 6.74539 1.70711L12.4022 7.36396L6.74539 13.0208C6.35487 13.4113 6.35487 14.0445 6.74539 14.435C7.13592 14.8256 7.76908 14.8256 8.15961 14.435L14.5236 8.07107ZM1 7.36396V8.36396H13.8165V7.36396V6.36396H1V7.36396Z" fill="var(--stroke-0, white)"/>
</svg>
