<svg preserveAspectRatio="none" width="100%" height="100%" overflow="visible" style="display: block;" viewBox="0 0 67.5472 9.8092" fill="none" xmlns="http://www.w3.org/2000/svg">
<g id="Group 2">
<path id="Subtract" d="M3.47461 0.207313C4.54754 0.205718 5.86531 0.100974 6.83301 0.599891C7.47614 0.927636 7.96001 1.50155 8.17383 2.19071C8.41306 2.94272 8.38195 4.0739 8.00293 4.77567C7.5708 5.57523 6.97537 5.93152 6.14355 6.19462C6.94962 7.31912 7.86646 8.49532 8.70215 9.60673H7.47949L5.80566 9.6077L3.34277 6.31571H2.66113L2.66309 9.6077H0L0.00292969 0.209266L3.47461 0.207313ZM5.42969 2.51981C4.88783 2.09539 3.34536 2.24754 2.64258 2.24931L2.63965 4.44462C3.42513 4.4475 4.87795 4.60519 5.47656 4.14384C5.90323 3.63542 5.94843 2.92636 5.42969 2.51981Z" fill="var(--fill-0, white)"/>
<path id="Vector" d="M50.0564 0.22276L52.8371 0.222852C53.9415 2.06993 55.1202 3.96441 56.1043 5.86768C56.1196 5.19673 56.0721 4.33055 56.0605 3.64294C56.0473 2.50293 56.0445 1.36279 56.052 0.222723L58.5549 0.224658C58.5556 3.3302 58.5878 6.49506 58.5512 9.59572L55.7731 9.59528C54.9721 8.28242 54.1912 6.93852 53.4044 5.61625C53.0899 5.08716 52.8096 4.52324 52.5012 3.9895L52.5582 9.59626L50.0564 9.59616V0.22276Z" fill="var(--fill-0, white)"/>
<path id="Vector_2" d="M24.5078 0.222757L31.9095 0.224652L31.9113 2.55552L27.1419 2.55444L27.1413 3.8032L31.4856 3.80337L31.4869 5.99161L27.8609 5.99042L27.1416 5.99004L27.1414 7.24556L31.9102 7.24508L31.9114 9.59626L24.5079 9.59633L24.5078 0.222757Z" fill="var(--fill-0, white)"/>
<path id="Vector_3" d="M9.05245 0.222757L16.4544 0.224625L16.4561 2.55552L11.675 2.55454L11.6759 3.8034H16.0221L16.0219 5.99106L12.4047 5.99042L11.675 5.99045L11.676 7.24641L16.455 7.24508L16.4561 9.5963L9.05252 9.59633L9.05245 0.222757Z" fill="var(--fill-0, white)"/>
<path id="Subtract_2" d="M46.2794 0.223801L49.7257 9.59294L46.9357 9.59587C46.8622 9.36217 46.6213 8.55456 46.5275 8.38493L46.4611 8.36638L42.8673 8.36443L42.4699 9.59587L39.7843 9.59489C40.1304 8.67747 40.4665 7.67458 40.797 6.74431L43.1183 0.221848L46.2794 0.223801ZM44.672 2.60759C44.3126 3.77304 43.9438 5.05975 43.547 6.20232L44.7443 6.20134L45.8292 6.20036C45.7057 5.81703 44.7722 2.75415 44.672 2.60759Z" fill="var(--fill-0, white)"/>
<path id="Vector_4" d="M62.8178 0.0159321C64.2245 -0.0786509 66.0072 0.225253 66.7868 1.54046C67.0898 2.05139 67.173 2.51845 67.2257 3.09874L64.752 3.10047C64.6572 2.1417 63.9761 1.98579 63.1452 2.00467C62.6561 2.01577 61.9994 2.25969 62.0392 2.84786C62.1173 3.58793 63.3018 3.68911 63.8623 3.78265C65.5618 4.05795 67.4618 4.50239 67.5436 6.56911C67.6428 9.07831 65.6648 9.70121 63.5624 9.80735C61.32 9.8538 59.2934 9.03302 59.2258 6.51737L61.7409 6.51727C61.7943 6.996 61.8856 7.43658 62.3897 7.63028C63.0871 7.90058 64.9113 8.03361 64.8403 6.88335C64.8277 6.67848 64.6912 6.45143 64.4989 6.36672C63.6996 6.01286 62.7906 6.00695 61.9417 5.78992C60.5659 5.43824 59.4663 4.66825 59.3817 3.14845C59.3389 2.3752 59.4741 1.73284 60.003 1.13574C60.7378 0.30603 61.7559 0.0877359 62.8178 0.0159321Z" fill="var(--fill-0, white)"/>
<path id="Vector_5" d="M39.3131 0.221337L42.0287 0.225428L38.8274 9.59603L35.6634 9.59575L33.6684 3.94896C33.2295 2.84963 32.749 1.35902 32.3508 0.223816L35.1661 0.222926C35.9117 2.60866 36.6312 4.85452 37.2556 7.27734C37.8667 4.83876 38.5733 2.61681 39.3131 0.221337Z" fill="var(--fill-0, white)"/>
<path id="Vector_6" d="M17.0902 0.222939L19.7211 0.224793L19.7212 7.24648L23.8673 7.24519L23.8677 9.59583L17.0904 9.59613L17.0902 0.222939Z" fill="var(--fill-0, white)"/>
</g>
</svg>
