<svg preserveAspectRatio="none" width="100%" height="100%" overflow="visible" style="display: block;" viewBox="0 0 122.412 122.412" fill="none" xmlns="http://www.w3.org/2000/svg">
<g id="Group 12">
<circle id="Ellipse 1" cx="61.2059" cy="61.2059" r="58.7059" fill="var(--fill-0, black)" stroke="var(--stroke-0, white)" stroke-width="5"/>
<g id="Group 2">
<path id="Subtract" d="M42.0194 32.7194C43.2993 32.8352 46.6697 32.7428 48.078 32.7428L60.5028 32.7389C62.586 32.7357 65.4274 32.6397 67.412 32.9645C68.9604 33.2174 70.4516 33.744 71.8163 34.5182C78.436 38.2665 80.744 46.6195 76.994 53.235C75.3195 56.189 72.4361 58.635 69.1258 59.526C71.6773 62.8816 74.2482 66.2223 76.8378 69.5485C77.993 71.0417 79.3036 72.6698 80.3905 74.196H75.8885C73.1344 74.1984 70.2687 74.2399 67.5233 74.1794C66.8602 73.1934 65.6719 71.7532 64.909 70.7614L59.577 63.86C58.8834 62.9683 57.2966 61.0275 56.7694 60.1608C55.7634 60.1573 54.7475 60.1411 53.744 60.2008L53.7401 74.1803C50.0264 74.2919 45.7671 74.1952 42.0126 74.194L42.0194 32.7194ZM63.8563 41.9801C62.7992 41.7365 60.6964 41.813 59.5292 41.8161L53.6776 41.8229C53.671 44.9644 53.6242 48.2935 53.6805 51.4294L59.4891 51.4352C61.7359 51.438 64.4612 51.7498 66.1688 49.9997C67.9735 48.0494 68.0959 44.984 66.0848 43.1413C65.455 42.5681 64.6869 42.1681 63.8563 41.9801Z" fill="var(--fill-0, white)"/>
<path id="Vector" d="M42.0208 79.3215L80.4012 79.3256L80.4048 89.6597C76.1135 89.7294 71.6337 89.666 67.3298 89.6661L42.007 89.6639L42.0208 79.3215Z" fill="var(--fill-0, white)"/>
</g>
</g>
</svg>
