<svg width="504" height="104" viewBox="0 0 504 104" fill="none" xmlns="http://www.w3.org/2000/svg">
<path d="M19.0784 58.4441V86.4573H39.8387V102.698H0V0.998596H39.5233V17.2389H19.0784V42.7294H37.9992V58.4441H19.0784Z" fill="#D91D23"/>
<path d="M71.7412 66.3277H70.4272L68.9556 73.2128L63.2268 102.698H43.0973L57.7608 49.7195L44.7265 0.998596H64.9612L69.7965 27.5402L71.1105 34.1099H72.3719L73.6858 27.5402L78.5211 0.998596H98.02L84.7755 49.5093L98.7558 102.698H78.5211L73.2128 73.2128L71.7412 66.3277Z" fill="#D91D23"/>
<path d="M130.658 73.0026H123.563V102.698H104.485V0.998596H130.553C138.016 0.998596 143.798 3.04834 147.95 7.14784C152.049 11.2999 154.099 17.1338 154.099 24.7546V48.353C154.099 55.8162 151.944 61.8078 147.634 66.2752C143.272 70.7426 137.648 73.0026 130.658 73.0026ZM123.563 56.7622H127.768C132.025 56.7622 134.548 53.7665 134.548 48.5633V25.2802C134.548 20.077 132.025 17.2389 127.768 17.2389H123.563V56.7622Z" fill="#D91D23"/>
<path d="M180.641 58.4441V86.4573H201.401V102.698H161.562V0.998596H201.086V17.2389H180.641V42.7294H199.561V58.4441H180.641Z" fill="#D91D23"/>
<path d="M253.012 58.8645L260.738 102.698H241.24L236.404 67.3789H228.783V102.698H209.705V0.998596H235.668C250.858 0.998596 259.004 8.9348 259.004 23.5984V42.414C259.004 49.2465 257.007 54.7125 253.012 58.8645ZM228.994 17.2389V52.0846H232.305C237.035 52.0846 239.4 49.2465 239.453 43.5177V25.543C239.453 20.0245 237.087 17.2389 232.305 17.2389H228.994Z" fill="#D91D23"/>
<path d="M268.254 102.698V0.998596H287.333V102.698H268.254Z" fill="#D91D23"/>
<path d="M316.87 58.4441V86.4573H337.63V102.698H297.792V0.998596H337.315V17.2389H316.87V42.7294H335.791V58.4441H316.87Z" fill="#D91D23"/>
<path d="M377.942 54.2395H378.888L377.837 28.8541V0.998596H395.812V102.698H377.259L364.014 44.9893H362.963L364.014 69.6389V102.698H345.934V0.998596H365.749L377.942 54.2395Z" fill="#D91D23"/>
<path d="M435.545 58.954L454.518 59.0591V80.6234C454.518 95.8126 445.952 103.749 430.184 103.749C413.839 103.749 405.219 94.5512 405.219 77.1021V26.5942C405.219 9.09247 413.996 0 430.184 0C445.952 0 454.518 7.77853 454.518 23.1779V41.4867H435.545V22.5998C435.545 18.4477 433.6 15.925 430.289 15.925C426.978 15.925 424.718 18.4477 424.718 22.5998V81.149C424.718 85.1434 426.978 87.8238 430.289 87.8238C433.6 87.8238 435.545 85.3536 435.545 81.149V58.954Z" fill="#D91D23"/>
<path d="M482.637 58.4441V86.4573H503.397V102.698H463.558V0.998596H503.082V17.2389H482.637V42.7294H501.557V58.4441H482.637Z" fill="#D91D23"/>
<path d="M437.653 55.541H439.988V57.0434H435.616V56.3029C435.616 55.5837 435.702 54.8645 435.873 54.1596C436.036 53.4546 436.243 52.8351 436.492 52.2869C436.734 51.7457 436.976 51.2259 437.226 50.7346C437.717 49.7519 438.109 48.7622 438.109 48.0003V45.0737C438.109 44.796 437.995 44.6536 437.774 44.6465C437.539 44.6465 437.425 44.796 437.425 45.0879V48.4417H435.659V45.1022C435.659 43.8988 436.442 43.1725 437.859 43.1725C439.162 43.1725 439.931 43.8062 439.931 44.9384V47.5801C439.931 48.2495 439.81 48.9758 439.575 49.7662C439.333 50.5566 439.07 51.2473 438.792 51.8454C438.514 52.4435 438.251 53.0844 438.016 53.7679C437.774 54.4586 437.653 55.0497 437.653 55.541Z" fill="#F9F4EA"/>
<path d="M440.992 43.735C441.37 43.3576 441.904 43.1725 442.595 43.1725C443.285 43.1725 443.812 43.3576 444.19 43.735C444.56 44.1124 444.745 44.6322 444.745 45.3015V54.9998C444.745 56.3598 443.99 57.1289 442.587 57.1289C441.213 57.1289 440.43 56.367 440.43 54.9998V45.3015C440.43 44.6322 440.615 44.1124 440.992 43.735ZM442.922 55.2348V45.0879C442.922 44.796 442.808 44.6536 442.587 44.6465C442.367 44.6465 442.253 44.796 442.253 45.0879V55.2348C442.253 55.5125 442.367 55.6549 442.587 55.6549C442.808 55.6549 442.922 55.5125 442.922 55.2348Z" fill="#F9F4EA"/>
<path d="M447.28 55.541H449.615V57.0434H445.243V56.3029C445.243 55.5837 445.329 54.8645 445.5 54.1596C445.663 53.4546 445.87 52.8351 446.119 52.2869C446.361 51.7457 446.603 51.2259 446.853 50.7346C447.344 49.7519 447.736 48.7622 447.736 48.0003V45.0737C447.736 44.796 447.622 44.6536 447.401 44.6465C447.166 44.6465 447.052 44.796 447.052 45.0879V48.4417H445.286V45.1022C445.286 43.8988 446.069 43.1725 447.486 43.1725C448.789 43.1725 449.558 43.8062 449.558 44.9384V47.5801C449.558 48.2495 449.437 48.9758 449.202 49.7662C448.96 50.5566 448.697 51.2473 448.419 51.8454C448.141 52.4435 447.878 53.0844 447.643 53.7679C447.401 54.4586 447.28 55.0497 447.28 55.541Z" fill="#F9F4EA"/>
<path d="M451.88 49.7946H451.951C452.222 49.3461 452.606 49.1253 453.105 49.1253C453.902 49.1253 454.386 49.6665 454.386 50.6562V55.0568C454.386 56.3598 453.61 57.1289 452.243 57.1289C450.847 57.1289 450.057 56.367 450.057 54.9998V45.3015C450.057 43.9629 450.84 43.1725 452.2 43.1725C453.56 43.1725 454.315 43.8774 454.315 45.1022V48.7052H452.549V45.0737C452.549 44.796 452.435 44.6536 452.214 44.6465C451.994 44.6465 451.88 44.7746 451.88 45.0238V49.7946ZM452.549 55.2633V50.7844C452.549 50.4925 452.435 50.3501 452.214 50.3501C451.994 50.3501 451.88 50.4925 451.88 50.7844V55.2348C451.88 55.5054 451.994 55.6407 452.214 55.6407C452.407 55.6407 452.549 55.4983 452.549 55.2633Z" fill="#F9F4EA"/>
</svg>
