<svg width="267" height="24" viewBox="0 0 267 24" fill="none" xmlns="http://www.w3.org/2000/svg">
<path d="M9.86286 13.4058L11.6224 23.3884H7.18169L6.08051 15.3449H4.34493V23.3884H0V0.22742H5.91293C9.37212 0.22742 11.2274 2.03481 11.2274 5.3743V9.65938C11.2274 11.2154 10.7725 12.4602 9.86286 13.4058ZM4.39281 3.92599V11.8618H5.14688C6.22414 11.8618 6.76276 11.2154 6.77473 9.91074V5.81717C6.77473 4.56038 6.23611 3.92599 5.14688 3.92599H4.39281Z" fill="#F9F4EA"/>
<path d="M42.1925 13.3101V19.6898H46.9204V23.3884H37.8475V0.22742H46.8486V3.92599H42.1925V9.7312H46.5015V13.3101H42.1925Z" fill="#F9F4EA"/>
<path d="M77.67 0.22742V19.6898H81.9072V23.3884H73.3251V0.22742H77.67Z" fill="#F9F4EA"/>
<path d="M111.903 13.3101V19.6898H116.631V23.3884H107.558V0.22742H116.559V3.92599H111.903V9.7312H116.212V13.3101H111.903Z" fill="#F9F4EA"/>
<path d="M148.637 13.729L149.714 0.22742H154.191L151.235 23.3884H144.639L141.647 0.22742H146.183L147.356 13.729L147.847 18.4091H148.146L148.637 13.729Z" fill="#F9F4EA"/>
<path d="M191.189 23.3884H186.688L186.245 18.7323L183.085 18.7083L182.642 23.3884H178.154L181.338 0.22742H188.101L191.189 23.3884ZM184.139 7.64851L183.42 15.1055H185.898L185.216 7.64851L184.821 4.18932H184.522L184.139 7.64851Z" fill="#F9F4EA"/>
<path d="M224.105 12.3525H224.32L224.081 6.57125V0.22742H228.174V23.3884H223.949L220.933 10.2459H220.693L220.933 15.8596V23.3884H216.815V0.22742H221.328L224.105 12.3525Z" fill="#F9F4EA"/>
<path d="M265.986 4.5125V7.9238H261.689V4.85961C261.689 4.00978 261.27 3.59085 260.42 3.57888C259.666 3.57888 259.211 4.05766 259.211 4.68007V7.60063C259.211 8.37864 259.522 8.73773 260.348 9.07288L262.503 9.7312C263.76 10.1501 264.705 10.7127 265.328 11.4069C265.938 12.1131 266.249 13.1425 266.249 14.519V18.3612C266.249 20.001 265.735 21.2818 264.717 22.2154C263.7 23.161 262.311 23.6278 260.564 23.6278C258.78 23.6278 257.404 23.2208 256.422 22.3949C255.441 21.569 254.95 20.4319 254.95 18.9716V14.926H259.295V18.6844C259.295 19.4624 259.75 20.025 260.564 20.025C261.318 20.025 261.821 19.4983 261.821 18.7801V15.1773C261.821 14.3754 261.366 13.8367 260.468 13.5375L258.481 12.951C255.956 12.2687 254.83 10.8324 254.83 8.11532V4.93143C254.83 3.48312 255.309 2.29814 256.279 1.37649C257.248 0.454841 258.649 0 260.492 0C262.252 0 263.616 0.406963 264.562 1.20892C265.507 2.02284 265.986 3.12404 265.986 4.5125Z" fill="#F9F4EA"/>
</svg>
